<svg width="40" height="35" viewBox="0 0 40 35" fill="none" xmlns="http://www.w3.org/2000/svg">
<g clip-path="url(#clip0_14_163)">
<path d="M1.66663 1.45833H8.33329L12.8 20.9854C12.9524 21.6568 13.3698 22.2599 13.9792 22.6892C14.5886 23.1184 15.3511 23.3464 16.1333 23.3333H32.3333C33.1155 23.3464 33.878 23.1184 34.4874 22.6892C35.0968 22.2599 35.5142 21.6568 35.6666 20.9854L38.3333 8.75H9.99996M16.6666 30.625C16.6666 31.4304 15.9204 32.0833 15 32.0833C14.0795 32.0833 13.3333 31.4304 13.3333 30.625C13.3333 29.8196 14.0795 29.1667 15 29.1667C15.9204 29.1667 16.6666 29.8196 16.6666 30.625ZM35 30.625C35 31.4304 34.2538 32.0833 33.3333 32.0833C32.4128 32.0833 31.6666 31.4304 31.6666 30.625C31.6666 29.8196 32.4128 29.1667 33.3333 29.1667C34.2538 29.1667 35 29.8196 35 30.625Z" stroke="#1E1E1E" stroke-width="4" stroke-linecap="round" stroke-linejoin="round"/>
</g>
<defs>
<clipPath id="clip0_14_163">
<rect width="40" height="35" fill="white"/>
</clipPath>
</defs>
</svg>
